<?xml version="1.0" encoding="utf-8"?>
<!-- Generator: Adobe Illustrator 16.0.0, SVG Export Plug-In . SVG Version: 6.00 Build 0)  -->
<!DOCTYPE svg PUBLIC "-//W3C//DTD SVG 1.1//EN" "http://www.w3.org/Graphics/SVG/1.1/DTD/svg11.dtd">
<svg version="1.1" id="图层_1" xmlns="http://www.w3.org/2000/svg" xmlns:xlink="http://www.w3.org/1999/xlink" x="0px" y="0px"
	 width="505.682px" height="165.909px" viewBox="0 0 505.682 165.909" enable-background="new 0 0 505.682 165.909"
	 xml:space="preserve">
<g>
	<path fill="#FF9900" d="M194.448,28.385h2.899l4.294,17.291l-3.739,1.126c-2.356-4.852-5.489-8.673-9.398-11.462
		c-3.213-2.332-6.774-3.497-10.684-3.497c-2.356,0-4.471,0.42-6.346,1.264c-1.874,0.844-3.279,1.934-4.215,3.271
		c-0.938,1.339-1.407,2.704-1.407,4.096c0,1.257,0.363,2.475,1.087,3.653c0.724,1.176,1.825,2.214,3.299,3.11
		c1.476,0.897,3.89,1.84,7.244,2.83l10.495,3.105c1.285,0.376,3.155,1.101,5.607,2.173c2.45,1.072,4.36,2.206,5.727,3.399
		c1.367,1.195,2.439,2.656,3.215,4.387c0.778,1.73,1.167,3.601,1.167,5.613c0,4.454-1.951,8.35-5.851,11.69
		c-3.901,3.34-8.948,5.008-15.14,5.008c-3.191,0-6.046-0.462-8.566-1.387c-2.519-0.925-5.24-2.566-8.162-4.926l-1.85,5.348h-2.822
		l-3.733-20.146l3.74-0.765c1.367,3.728,3.183,6.89,5.448,9.49c2.265,2.602,4.771,4.565,7.521,5.891
		c2.747,1.328,5.541,1.99,8.382,1.99c3.86,0,7.238-1.164,10.133-3.497c2.413-1.956,3.619-4.263,3.619-6.917
		c0-2.439-0.872-4.437-2.613-5.993c-1.77-1.554-4.934-3.001-9.49-4.343l-10.053-2.895c-5.63-1.634-9.598-3.726-11.903-6.273
		c-2.306-2.545-3.458-5.468-3.458-8.766c0-2.573,0.75-4.951,2.252-7.137c1.5-2.185,3.807-4.014,6.917-5.489
		c3.109-1.474,6.515-2.211,10.214-2.211c3.108,0,6.084,0.537,8.927,1.608c2.011,0.75,3.86,1.823,5.549,3.217L194.448,28.385z"/>
	<path fill="#FF9900" d="M211.051,31.763v-3.378h20.025c9.168,0,15.563,0.577,19.182,1.729c5.334,1.689,9.664,4.84,12.987,9.451
		c3.673,5.093,5.51,10.951,5.51,17.571c0,4.504-0.905,8.694-2.714,12.567c-1.811,3.875-4.189,6.991-7.139,9.35
		c-2.439,1.984-5.375,3.385-8.805,4.201c-3.433,0.819-6.891,1.227-10.375,1.227h-28.672v-3.377h2.332l0.765,0.041
		c0.991,0,1.803-0.203,2.433-0.605c0.628-0.401,1.077-0.937,1.347-1.607c0.187-0.509,0.28-1.689,0.28-3.539V37.875
		c0-2.132-0.134-3.509-0.402-4.129c-0.376-0.836-0.978-1.417-1.809-1.74C215.515,31.843,213.865,31.763,211.051,31.763z
		 M225.648,80.178h12.157c1.208,0,3.213-0.216,6.019-0.644c2.805-0.43,4.811-0.953,6.019-1.57c1.771-0.912,3.49-2.382,5.153-4.407
		c1.665-2.025,2.946-4.453,3.846-7.285c0.899-2.83,1.349-6.069,1.349-9.719c0-3.622-0.449-6.76-1.349-9.417
		c-0.899-2.657-2.254-5.045-4.066-7.165c-1.812-2.119-3.825-3.737-6.04-4.85c-2.212-1.113-4.689-1.818-7.427-2.114
		c-1.476-0.133-3.946-0.2-7.408-0.2h-8.252V80.178z"/>
	<path fill="#FF9900" d="M276.596,28.385h17.193l25.512,42.062V38.438c0-1.916-0.188-3.291-0.563-4.128
		c-0.376-0.835-0.938-1.469-1.688-1.9c-0.75-0.432-1.863-0.647-3.337-0.647h-1.448v-3.378h18.739v3.378h-1.001
		c-1.651,0-2.771,0.135-3.357,0.404c-0.826,0.378-1.445,1.066-1.858,2.063c-0.413,0.999-0.619,2.401-0.619,4.208v46.042h-4.866
		L288.54,33.934v40.051c0,2.226,0.065,3.578,0.201,4.061c0.187,0.617,0.528,1.18,1.025,1.688c0.496,0.511,1.078,0.858,1.75,1.046
		c0.669,0.189,2.023,0.295,4.061,0.322v3.377h-18.98v-3.377h1.006c1.93,0,3.238-0.188,3.92-0.564
		c0.685-0.373,1.213-1.017,1.588-1.93c0.376-0.91,0.563-2.452,0.563-4.623V38.438c0-2.239-0.054-3.6-0.16-4.087
		c-0.241-0.917-0.703-1.577-1.386-1.982c-0.685-0.404-2.046-0.606-4.083-0.606h-1.447V28.385z"/>
	<path fill="#333333" d="M337.717,28.385h21.756v3.378h-2.01c-1.557,0-2.654,0.148-3.298,0.445
		c-0.644,0.299-1.112,0.731-1.408,1.298c-0.296,0.568-0.441,1.582-0.441,3.041v39.127c0,1.796,0.065,2.87,0.2,3.218
		c0.16,0.482,0.508,0.83,1.045,1.045c0.376,0.16,1.461,0.241,3.258,0.241h3.016c3.459,0,6.46-0.503,9.008-1.509
		c2.547-1.005,4.744-2.465,6.594-4.383c1.85-1.916,3.633-4.778,5.35-8.584l3.578,1.207l-6.273,17.571h-40.373v-3.377h1.77
		c1.715,0,2.869-0.146,3.459-0.442c0.589-0.296,1.045-0.784,1.367-1.468c0.321-0.684,0.482-1.855,0.482-3.519V37.512
		c0-1.943-0.148-3.245-0.441-3.907c-0.296-0.662-0.725-1.133-1.287-1.417c-0.563-0.282-1.756-0.425-3.58-0.425h-1.77V28.385z"/>
	<path fill="#333333" d="M408.108,28.385h6.577l17.458,46.896c0.857,2.354,1.723,3.915,2.594,4.677
		c0.869,0.762,2.045,1.145,3.518,1.145h0.885v3.377h-19.961v-3.377c0.643-0.053,1.271-0.081,1.889-0.081
		c1.287,0,2.132-0.133,2.533-0.402c0.777-0.509,1.166-1.151,1.166-1.93c0-0.563-0.376-1.943-1.126-4.142l-3.712-10.857h-20.323
		l-4.375,12.144c-0.456,1.261-0.685,2.131-0.685,2.613c0,0.536,0.143,1.006,0.423,1.408c0.282,0.402,0.663,0.703,1.146,0.904
		c0.482,0.201,1.261,0.302,2.333,0.302c0.723,0,1.313,0.013,1.768,0.04v3.377h-16.768v-3.377c1.554,0,2.674-0.154,3.356-0.463
		c0.685-0.308,1.281-0.804,1.79-1.488c0.508-0.684,1.18-2.123,2.01-4.322L408.108,28.385z M401.026,59.75h17.321l-8.63-24.127
		L401.026,59.75z"/>
	<path fill="#333333" d="M442.711,28.385h26.68c6.521,0,10.986,0.294,13.403,0.884c3.566,0.857,6.391,2.411,8.472,4.661
		c2.076,2.251,3.117,4.955,3.117,8.116c0,2.278-0.551,4.319-1.65,6.128c-1.098,1.808-2.695,3.356-4.786,4.641
		c-1.341,0.831-3.166,1.54-5.47,2.129c2.914,0.537,5.133,1.181,6.658,1.931c2.299,1.128,4.118,2.738,5.453,4.83
		c1.338,2.093,2.008,4.453,2.008,7.083c0,2.548-0.659,4.909-1.972,7.081c-1.313,2.174-3.171,3.958-5.567,5.354
		c-2.4,1.395-5.196,2.286-8.386,2.675c-3.19,0.39-6.475,0.583-9.853,0.583h-28.107v-3.377h1.889c1.824,0,3.07-0.281,3.741-0.844
		c0.966-0.779,1.448-2.065,1.448-3.861V37.432c0-1.834-0.148-3.091-0.443-3.765c-0.296-0.675-0.737-1.162-1.326-1.459
		c-0.592-0.297-1.73-0.445-3.42-0.445h-1.889V28.385z M457.307,32.847v20.549h10.269c4.807,0,8.095-0.228,9.866-0.685
		c2.764-0.724,4.879-1.956,6.342-3.699c1.463-1.741,2.196-3.98,2.196-6.714c0-2.306-0.666-4.229-1.994-5.771
		c-1.33-1.541-3.106-2.593-5.336-3.156c-1.45-0.348-4.455-0.524-9.019-0.524H457.307z M457.307,57.257v18.417
		c0,1.851,0.081,2.95,0.242,3.298c0.215,0.482,0.643,0.816,1.287,1.004c0.455,0.135,1.742,0.202,3.859,0.202h5.469
		c5.414,0,9.283-0.302,11.602-0.905c2.32-0.604,4.297-1.875,5.932-3.82c1.634-1.943,2.453-4.282,2.453-7.016
		c0-2.306-0.664-4.349-1.99-6.133c-1.327-1.783-3.164-3.069-5.51-3.86c-2.346-0.79-6.509-1.186-12.486-1.186H457.307z"/>
</g>
<g>
	<path fill="#333333" d="M114.494,57.208H38.627c-12.675-26.738,47.861-64.368,77.671-2.166h4.253
		c-0.247-5.555-8.881-29.581-30.143-40.679C74.689,6.16,59.648,9.05,44.805,16.523C30.751,23.6,17.683,43.611,17.683,55.962
		c0,0.408,0.02,0.826,0.046,1.246h-7.134l12.991,35.211c0.833,2.4,2.303,3.336,4.569,3.336h36.878c2.266,0,5.765-0.551,5.765-2.813
		v-8.715c2.033-0.006,3.972,0.045,5.81,0.16v8.555c0,2.262,2.55,2.813,4.819,2.813h21.877c12.761,17.917-10.07,50.365-31.691,50.033
		c-24.04-0.363-38.369-31.198-38.369-31.198s-3.079-0.383-4.262-0.08c0,0,14.436,39.136,44.019,40.065
		c18.531,0.58,49.458-26.814,43.912-57.32c-0.094-0.512-0.207-1.01-0.336-1.5h1.729c2.269,0,2.34-1.119,3.182-3.336l12.988-35.211
		H114.494z M76.608,74.125c-1.936-0.299-3.895-0.588-5.81-0.863V61.694h5.81V74.125z"/>
	<polygon fill="#FF9900" points="62.368,88.938 31.978,88.938 23.634,64.899 62.368,64.899 	"/>
	<polygon fill="#FF9900" points="114.946,88.938 85.201,88.938 85.201,64.899 123.286,64.899 	"/>
	<rect x="52.841" y="69.086" fill="#333333" width="4.489" height="8.714"/>
	<rect x="106.449" y="69.086" fill="#333333" width="4.487" height="8.714"/>
</g>
<g>
	<path fill="#595959" d="M173.101,113.695c3.53-0.439,7.061-0.936,10.594-1.489c2.206-0.331,3.53-0.439,3.973-0.331
		c1.543,0.331,2.537,0.993,2.979,1.986c0.219,0.771-0.442,1.103-1.986,0.993c-1.878-0.222-3.973-0.331-6.291-0.331
		c-2.209,0.109-5.409,0.331-9.601,0.662c-0.331,1.324-0.828,3.203-1.49,5.628c3.419-0.553,6.125-1.159,8.111-1.821
		c0.439-0.22,0.771-0.33,0.993-0.33c2.426,1.324,3.695,2.539,3.807,3.642c0,0.11-0.222,0.275-0.662,0.497
		c-1.105,0.662-2.152,1.488-3.145,2.482c-1.216,1.215-2.814,2.593-4.801,4.139c1.655,1.324,2.703,2.647,3.145,3.973
		c0.332,1.212-0.057,1.986-1.158,2.317c-0.332,0.107-1.159-0.609-2.483-2.152c-2.318-2.538-4.526-4.743-6.622-6.622
		c-0.774-0.662-0.939-0.992-0.497-0.992c0.331,0,1.159,0.275,2.483,0.827c1.655,0.662,3.088,1.435,4.304,2.318
		c3.088-3.532,4.578-6.067,4.47-7.615c-0.112-0.331-1.05-0.439-2.814-0.331c-2.209,0.223-3.754,0.554-4.635,0.993
		c-0.554,0.224-1.105,0.554-1.655,0.994c-0.331,0.331-0.608,0.495-0.828,0.495c-0.774-0.107-1.324-0.77-1.655-1.986
		c0-0.108,0.166-0.273,0.497-0.496c1.212-0.993,2.04-2.869,2.483-5.628c-4.526,0.662-7.78,1.216-9.767,1.655
		c-0.331,0.11-0.553,0.166-0.662,0.166c-1.105-0.109-2.209-0.605-3.311-1.49c-0.443-0.439-0.057-0.662,1.159-0.662
		c1.102,0,4.966-0.387,11.587-1.158c0.55-0.109,0.993-0.166,1.324-0.166c0.331-1.102,0.662-2.923,0.993-5.463
		c-0.443,0.222-1.602,0.441-3.476,0.662c-0.993,0-2.098-0.274-3.311-0.828c-0.885-0.552-0.774-0.827,0.331-0.827
		c1.102-0.108,3.311-0.387,6.621-0.827c0.219-1.545,0.331-2.814,0.331-3.808c0-1.655-0.277-3.034-0.828-4.138
		c-0.223-0.44-0.278-0.771-0.166-0.994c1.875-0.108,3.476,0.554,4.801,1.987c0,0.11-0.057,0.388-0.166,0.827
		c-0.553,1.547-1.05,3.477-1.49,5.794c0.993-0.222,2.095-0.497,3.311-0.827c1.655-0.44,2.591-0.662,2.814-0.662
		c1.324,0,2.26,0.275,2.814,0.827c0.55,0.554,0.385,0.993-0.497,1.324c-1.656,0.33-4.635,0.827-8.939,1.489L173.101,113.695z"/>
	<path fill="#595959" d="M204.387,112.206c0.771,0.886,0.993,1.986,0.662,3.311c-0.443,0.772-1.105,0.719-1.986-0.165
		c-2.98-2.648-3.919-4.082-2.814-4.305C202.234,111.047,203.613,111.436,204.387,112.206z M209.187,115.682
		c0.331-0.108,0.166,0.828-0.497,2.814c-2.317,6.621-3.807,11.201-4.469,13.738c-0.223,1.213-0.993,0.386-2.317-2.482
		c-0.223-0.22-0.331-0.385-0.331-0.496c-0.554-1.102-0.497-1.711,0.166-1.821c0.993-0.552,2.757-3.311,5.297-8.276
		C207.917,117.063,208.633,115.904,209.187,115.682z M209.021,103.764c0.771,0.662,1.102,1.656,0.993,2.98
		c-0.223,0.992-0.774,1.157-1.655,0.495c-3.422-2.979-4.526-4.524-3.311-4.635C206.704,102.827,208.028,103.212,209.021,103.764z
		 M230.706,109.558c-0.112,0.554-3.145,1.489-9.104,2.813c1.212,0.662,1.764,1.269,1.655,1.821c-0.331,0.44-0.553,1.712-0.662,3.808
		c1.324-0.331,2.757-0.605,4.304-0.828c2.095,0.11,2.867,0.497,2.317,1.158c-0.884,0.772-3.092,1.435-6.621,1.986
		c-0.112,0.223-0.166,2.318-0.166,6.291c4.635-0.662,7.558-0.994,8.773-0.994c1.211,0,2.317,0.389,3.311,1.159
		c1.102,0.772,1.377,1.435,0.828,1.987c-0.112,0.11-0.828,0.11-2.152,0c-3.864-0.439-7.449-0.553-10.76-0.331
		c-3.533,0.222-7.23,0.827-11.091,1.82c-0.662,0.11-1.381-0.056-2.152-0.497c-0.993-0.661-1.215-1.047-0.662-1.158
		c1.433-0.221,3.585-0.496,6.456-0.827c2.426-0.44,4.138-0.718,5.131-0.829c0.108-3.972,0.108-6.067,0-6.289
		c-1.878,0.441-3.476,0.553-4.8,0.33c-1.768-0.33-2.152-0.662-1.159-0.992c0.219-0.109,1.268-0.388,3.145-0.828
		c1.433-0.331,2.426-0.552,2.98-0.662c0-0.331,0-0.936,0-1.82c0-2.318-0.222-3.584-0.662-3.808c-1.768,0.44-3.642,0.554-5.628,0.33
		c-2.43-0.551-2.926-0.992-1.49-1.323c3.31-0.439,7.336-1.379,12.083-2.814c0.994-0.331,1.598-0.497,1.821-0.497
		C229.051,108.125,230.484,108.456,230.706,109.558z M223.754,101.446c0.771,0.662,1.102,1.655,0.993,2.979
		c-0.223,1.104-0.774,1.382-1.655,0.828c-1.324-0.771-2.871-1.821-4.635-3.146c-0.885-0.771-0.662-1.214,0.662-1.324
		C221.214,100.676,222.761,100.895,223.754,101.446z"/>
	<path fill="#595959" d="M270.931,102.108c1.324,0.884,1.821,1.547,1.489,1.987c-0.553,0.553-0.827,1.877-0.827,3.972
		c0,1.767,0.108,4.47,0.331,8.111c0,0.993,0.053,2.263,0.166,3.808c0.218,4.303,0.33,7.009,0.33,8.111
		c-0.223,2.317-1.215,4.137-2.979,5.462c-0.332,0.22-0.775-0.112-1.324-0.993c-0.775-1.433-1.713-2.592-2.814-3.476
		c-0.662-0.552-0.94-0.937-0.828-1.159c0.109-0.108,0.605-0.056,1.49,0.166c1.764,0.662,2.701,0.827,2.814,0.496
		c0.992-1.103,1.324-5.462,0.992-13.077c-0.223-9.709-1.381-13.795-3.477-12.25c-0.223,0-0.387,0-0.496,0
		c-3.533,0.223-9.436,0.938-17.712,2.153c0.109,1.103,0,4.635-0.331,10.594c-0.223,4.965-0.331,8.552-0.331,10.759
		c-0.112,3.202-0.497,4.909-1.159,5.132c-1.105-0.223-1.712-1.655-1.821-4.304v-0.166c0.88-3.531,1.433-8.384,1.655-14.566
		c0.219-4.082,0.053-6.787-0.497-8.11c-0.331-0.662-0.443-1.103-0.331-1.325c0.108-0.109,0.439-0.109,0.993,0
		c0.108,0,0.384,0.057,0.828,0.166c0.439,0.109,0.828,0.165,1.159,0.165c7.284-0.44,13.682-1.324,19.202-2.648
		C268.118,100.895,269.276,101.225,270.931,102.108z M257.688,109.723c-0.112,0.332-0.496,1.27-1.158,2.814
		c-0.662,1.878-1.105,3.036-1.324,3.477c0.331,0.441,1.046,1.435,2.152,2.979c0.439,0.885,0.383,1.821-0.166,2.814
		c-0.554,0.555-1.051,0.276-1.49-0.828c-0.443-1.545-0.939-2.537-1.49-2.979c-1.436,3.09-2.76,5.188-3.972,6.289
		c-0.884,0.886-1.49,1.324-1.821,1.324c-0.113-0.22,0.274-0.827,1.159-1.82c0.993-1.323,2.205-3.807,3.641-7.449
		c-0.553-0.992-1.271-2.151-2.151-3.476c-0.554-0.884-0.885-1.433-0.994-1.655c-0.223-0.439-0.278-0.771-0.166-0.993
		c0.108-0.108,0.331,0.057,0.662,0.497c0.219,0.222,0.44,0.496,0.662,0.827c0.881,0.993,1.764,2.043,2.649,3.146
		c0.993-2.426,1.377-4.413,1.158-5.96c-0.112-0.221-0.057-0.497,0.166-0.828c0.108-0.107,0.331-0.107,0.662,0
		C257.3,108.456,257.907,109.061,257.688,109.723z M266.13,109.061c-0.222,0.332-0.661,1.547-1.324,3.643
		c-0.443,1.434-0.774,2.374-0.993,2.813c0.219,0.223,0.497,0.497,0.828,0.827c0.662,0.773,1.377,1.713,2.152,2.814
		c0.77,1.324,0.936,2.594,0.496,3.808c-0.443,0.772-1.051,0.497-1.82-0.828c-0.113-0.221-0.332-0.662-0.663-1.324
		c-0.661-1.324-1.271-2.425-1.82-3.31c-1.878,3.863-3.534,6.182-4.966,6.951c-0.775,0.441-1.217,0.606-1.324,0.496
		c-0.223-0.107-0.058-0.496,0.496-1.158c1.764-2.207,3.254-4.742,4.469-7.614c-1.215-1.986-2.209-3.311-2.979-3.973
		c-0.332-0.439-0.443-0.771-0.332-0.993c0.109-0.108,0.385,0,0.828,0.331c0.219,0.223,0.605,0.554,1.158,0.993
		c0.881,0.885,1.543,1.547,1.986,1.986c0.994-2.979,1.213-5.24,0.663-6.787c-0.112-0.331-0.058-0.604,0.165-0.827
		c0.108-0.108,0.331-0.108,0.662,0C265.577,107.57,266.349,108.29,266.13,109.061z"/>
	<path fill="#595959" d="M294.934,124.621c0.107,0.223-0.609,0.719-2.152,1.489c-0.331,0.11-0.775,0.331-1.324,0.662
		c-3.643,1.767-5.741,2.925-6.291,3.477c-0.33,0.11-1.271-0.497-2.814-1.82c-0.33-0.44-0.442-0.771-0.33-0.994
		c0.219-0.221,0.549-0.274,0.993-0.165c1.433,0.11,4.47-0.662,9.104-2.318C293.663,124.4,294.602,124.289,294.934,124.621z
		 M290.133,100.618l0.33,0.166c1.875,1.216,2.648,2.043,2.318,2.482c-0.443,0.555-1.105,1.602-1.986,3.146
		c-1.768,2.759-3.311,4.911-4.635,6.456c0.107,0.11,1.211,0.11,3.311,0c1.433,0,2.205,0,2.316,0
		c1.213-2.426,1.822-4.139,1.822-5.132c0-0.662,0.384-0.827,1.158-0.497c1.543,0.886,2.152,1.547,1.82,1.987
		c-0.33,0.331-1.105,1.324-2.317,2.979c-2.43,3.202-4.416,5.573-5.959,7.118c3.088-0.439,4.8-0.718,5.132-0.828
		c1.211-0.221,1.874-0.221,1.986,0c0,0.223-0.609,0.555-1.82,0.993c-0.224,0.109-0.663,0.275-1.324,0.497
		c-3.424,1.104-5.463,2.043-6.125,2.814c-0.332,0.223-0.72-0.166-1.159-1.16c-0.331-1.213-0.331-1.876,0-1.986
		c1.324-0.439,2.151-0.827,2.483-1.158c0.662-0.662,1.873-2.152,3.642-4.469c0,0.109,0.108,0,0.331-0.332
		c-2.762,0.223-4.913,0.72-6.456,1.49c-0.331,0.223-0.554,0.331-0.662,0.331c-0.444-0.108-0.774-0.605-0.993-1.489
		c-0.112-0.553,0-0.936,0.331-1.159c1.433-0.884,2.923-2.703,4.47-5.463c1.102-2.206,1.433-4.139,0.992-5.794
		C289.028,100.729,289.358,100.397,290.133,100.618z M306.52,101.777c0.551,0.441,0.663,0.827,0.332,1.158
		c-0.662,0.554-1.603,1.713-2.814,3.477c-0.443,0.662-0.774,1.158-0.993,1.489c2.979-0.552,5.019-1.323,6.124-2.316
		c0.332-0.221,1.159,0.11,2.483,0.993c1.212,0.885,1.655,1.434,1.324,1.654c-0.774,0.441-1.767,1.548-2.979,3.312
		c-1.105,1.548-2.099,2.758-2.979,3.642c5.075,3.203,9.489,5.188,13.243,5.959c0.77,0.223,1.211,0.441,1.324,0.662
		c0.107,0.223-0.166,0.388-0.828,0.497c-2.318,0.441-3.92,0.72-4.801,0.828c-0.993,0.109-1.768,0.109-2.317,0
		c-0.442-0.108-1.655-0.994-3.642-2.649c-1.655-1.545-3.092-2.813-4.304-3.807c-3.202,2.87-6.621,4.91-10.263,6.125
		c-1.105,0.44-1.713,0.553-1.82,0.331c-0.113-0.222,0.33-0.605,1.324-1.159c3.973-2.096,7.005-4.359,9.104-6.787
		c-1.655-1.433-3.037-2.482-4.139-3.145c-1.436,1.323-2.596,2.151-3.476,2.482c-0.774,0.109-0.554-0.439,0.662-1.655
		c4.191-4.743,6.232-8.716,6.124-11.918c-0.111-0.332-0.057-0.553,0.166-0.663c0.108-0.107,0.385-0.055,0.828,0.166
		C305.084,100.676,305.859,101.115,306.52,101.777z M313.307,125.779c-0.993,0.441-1.986,1.49-2.979,3.146
		c-0.112,0.331-0.223,0.554-0.331,0.661c1.213,0.663,1.543,1.16,0.993,1.49c-0.223,0.223-0.885,0.331-1.986,0.331
		c-2.54,0-5.243,0.11-8.11,0.331c-0.332,1.103-0.72,1.544-1.159,1.325c-0.443-0.223-0.774-0.886-0.993-1.987
		c-0.331-3.642-0.774-5.793-1.324-6.455c-0.331-0.771,0.331-1.048,1.986-0.828c0.331,0.11,0.55,0.166,0.662,0.166
		c2.867,0.11,5.516-0.332,7.945-1.324C311.76,123.627,313.526,124.678,313.307,125.779z M306.52,124.621
		c-0.553,0-2.705,0.275-6.455,0.827c0.219,2.318,0.385,4.084,0.496,5.298c4.191-0.331,6.564-0.605,7.118-0.828
		c0.55-0.439,0.937-1.268,1.159-2.483c0.219-1.324,0.107-2.26-0.332-2.813C308.395,124.4,307.733,124.4,306.52,124.621z
		 M306.024,108.398c-0.662,0.222-1.158,0.331-1.489,0.331c-0.444,0-1.106,0-1.987,0c-1.105,1.436-1.768,2.317-1.986,2.649
		c0.771,0.11,2.04,0.771,3.808,1.985c0.439,0.331,0.716,0.554,0.827,0.663c2.318-2.869,3.365-4.801,3.146-5.795
		C308.01,108.012,307.237,108.067,306.024,108.398z"/>
	<path fill="#595959" d="M340.62,102.273c-0.111,0.11-0.388,0.441-0.827,0.993c-0.442,0.663-0.827,1.217-1.159,1.656
		c0.332,0.11,0.828,0.331,1.49,0.662c2.205,0.885,3.642,1.548,4.305,1.985c1.102,0.993,1.543,2.097,1.324,3.312
		c-0.332,0.662-1.16,0.441-2.484-0.662c-0.442-0.439-1.381-1.268-2.813-2.483c-0.884-0.77-1.655-1.433-2.317-1.986
		c-3.423,5.077-7.34,9.214-11.753,12.415c-1.216,0.886-1.986,1.324-2.317,1.324c-0.111-0.222,0.273-0.771,1.158-1.655
		c7.393-6.952,11.257-12.746,11.588-17.381c-0.223-0.552-0.166-0.882,0.166-0.992c0.219,0,0.662,0.165,1.324,0.495
		C340.29,101.06,341.06,101.835,340.62,102.273z M343.104,115.352c-0.994,0.992-1.49,2.375-1.49,4.138
		c-0.331,2.428-1.271,3.918-2.814,4.47c-0.443,0.11-0.773-0.166-0.993-0.827c-0.331-0.662-0.608-1.159-0.827-1.491
		c-0.443-0.771-0.662-1.213-0.662-1.324c0-0.107,0.33-0.056,0.992,0.166c0.551,0.11,1.047,0.11,1.49,0
		c0.331-0.331,0.551-1.324,0.662-2.979c0.109-1.434,0.054-2.208-0.166-2.318c-0.773-0.331-2.264,0-4.469,0.993
		c-0.112,0.441-0.166,1.435-0.166,2.979c-0.111,1.435-0.165,2.428-0.165,2.979c-0.442,3.642,0.219,5.573,1.986,5.794
		c2.317,0.331,4.357,0.057,6.125-0.828c0.108-0.108,0.219-0.221,0.331-0.331c0.662-0.552,1.047-1.324,1.158-2.317
		c0.219-1.102,0.385-1.598,0.496-1.489c0.22,0,0.44,0.554,0.663,1.655c0.108,0.772,0.331,1.547,0.662,2.316
		c0.439,0.663,0.384,1.217-0.165,1.656c-0.885,0.885-2.209,1.489-3.974,1.821c-2.099,0.222-3.973,0.165-5.628-0.166
		c-2.871-0.663-4.029-3.585-3.477-8.773c0.219-2.979,0.109-5.021-0.33-6.124c-0.332-0.771-0.389-1.159-0.166-1.159
		c0.331-0.108,1.102,0.057,2.317,0.497c1.543-0.109,3.146-0.662,4.8-1.656l0.166-0.165
		C341.004,112.979,342.219,113.806,343.104,115.352z M351.711,108.896c-0.443,0.885-0.662,3.202-0.662,6.952
		c0,1.986,0,3.586,0,4.801c-0.113,1.766-0.443,2.648-0.994,2.648c-0.662-0.221-1.158-1.103-1.489-2.648
		c0-0.221,0.054-0.828,0.165-1.821c0.332-1.876,0.497-3.585,0.497-5.132c-0.112-2.648-0.497-4.69-1.159-6.125
		c-0.223-0.552-0.223-0.883,0-0.992c0.109-0.108,0.497-0.108,1.159,0C351.102,107.35,351.93,108.125,351.711,108.896z
		 M358.664,101.777c-0.662,1.215-0.993,3.146-0.993,5.793c-0.112,2.318,0,7.394,0.331,15.23c0.219,6.951-0.662,10.979-2.649,12.083
		c-0.33,0.219-0.827-0.277-1.489-1.489c-0.662-1.437-1.382-2.539-2.151-3.312c-0.885-1.101-1.271-1.654-1.159-1.654
		c0-0.108,0.662,0.11,1.986,0.662c1.212,0.441,2.095,0.606,2.648,0.495c0.22-0.219,0.385-1.875,0.497-4.965
		c0.219-2.98,0.273-5.406,0.166-7.283c0-0.221,0-0.552,0-0.994c0.107-9.377-0.443-14.84-1.656-16.388
		c-0.443-0.661-0.553-1.101-0.331-1.323c0.22-0.109,0.771-0.056,1.655,0.166C357.944,99.901,358.995,100.895,358.664,101.777z"/>
	<path fill="#595959" d="M380.844,121.311c1.656,0,2.924,0.222,3.809,0.662c0.77,0.441,1.047,1.159,0.827,2.151
		c-0.331,0.662-0.827,0.72-1.489,0.165l-0.828-0.662c-1.217-0.992-1.986-1.544-2.318-1.654c0,0.331,0,2.209,0,5.628
		c-0.111,1.878-0.826,3.036-2.15,3.476c-0.223,0-0.443-0.221-0.663-0.661c-0.442-0.993-0.993-1.821-1.655-2.483
		c-0.554-0.662-0.828-1.049-0.828-1.159c0.109-0.221,0.497-0.221,1.159,0c1.102,0.331,1.655,0.388,1.655,0.165
		c0.439-0.992,0.662-3.641,0.662-7.945c-0.553,0.11-1.324,0.275-2.317,0.497c-2.099,0.44-3.368,0.72-3.808,0.827
		c-0.992,0.111-1.82-0.22-2.482-0.992c0.331,0,0.771-0.057,1.324-0.166c4.522-0.77,6.953-1.267,7.283-1.489
		c0-1.987-0.277-3.089-0.828-3.312c-1.986,0.332-4.303,0.885-6.951,1.656c-0.885,0.33-1.437,0.496-1.656,0.496
		c-0.553,0-1.271-0.331-2.152-0.993c-0.661-0.662-0.661-0.993,0-0.993c1.434-0.108,4.91-0.605,10.43-1.49
		c0.992-0.107,1.709-0.22,2.152-0.33c1.432-2.207,2.15-3.917,2.15-5.133c-0.111-0.552-0.057-0.826,0.166-0.826
		c0.109-0.109,0.439,0,0.993,0.33c1.325,0.772,1.765,1.324,1.325,1.655c-0.662,0.441-1.768,1.655-3.311,3.642
		c0.661-0.107,1.598-0.273,2.813-0.496c0.771-0.221,1.267-0.331,1.489-0.331c1.434-0.108,1.986,0.223,1.656,0.993
		c0.219,0.223-1.934,0.661-6.457,1.324c-0.662,0.109-1.158,0.166-1.489,0.166c1.212,0.553,1.765,1.05,1.655,1.489
		c0,0.885,0,1.49,0,1.821c0.439-0.109,1.102-0.274,1.986-0.497c0.881-0.221,1.434-0.331,1.656-0.331
		c1.324,0,1.986,0.276,1.986,0.828c-0.223,0.223-0.885,0.389-1.986,0.496c-1.325,0.223-2.596,0.441-3.809,0.662V121.311z
		 M373.561,121.311c0.22,0.11,0.439,0.441,0.662,0.993c0.219,2.871-0.496,4.966-2.151,6.29c-0.774,0.331-1.216-0.273-1.324-1.821
		c0-0.221,0.274-0.771,0.827-1.655c0.771-1.544,1.213-2.482,1.324-2.813C373.008,121.641,373.231,121.311,373.561,121.311z
		 M386.804,104.096c0.55,0.222,0.662,0.496,0.331,0.827c-1.768,0.885-5.463,1.765-11.091,2.647c-0.993,0-1.767-0.165-2.317-0.496
		c-0.774-0.33-0.828-0.552-0.166-0.662c2.758-0.221,6.291-0.992,10.595-2.316c0.439-0.222,0.716-0.332,0.827-0.332
		C385.534,103.655,386.141,103.764,386.804,104.096z M378.031,109.558c0.331,0.662,0.385,1.381,0.165,2.151
		c-0.223,0.555-0.553,0.662-0.992,0.332c0.108,0.223-0.497-0.552-1.821-2.318c-0.331-0.552-0.331-0.883,0-0.993
		C376.484,108.62,377.369,108.896,378.031,109.558z M383.163,100.453c0.33,0.662,0.33,1.435,0,2.317
		c-0.223,0.553-0.609,0.606-1.159,0.165c-3.532-2.648-4.36-3.915-2.483-3.807C380.954,99.129,382.168,99.571,383.163,100.453z
		 M400.047,104.261c-2.871,0.772-5.686,1.82-8.443,3.145c0.109,0.223,0.055,1.987-0.165,5.298v0.495
		c2.206-0.33,5.075-0.935,8.608-1.819c0.662-0.109,1.158-0.221,1.489-0.332c0.993-0.22,1.93-0.055,2.813,0.497
		c0.771,0.554,0.938,1.104,0.497,1.654c-0.112,0.11-0.497,0.166-1.159,0.166c-1.986,0-4.139,0.165-6.455,0.497
		c0.881,0.662,1.268,1.324,1.158,1.986c-0.111,1.216-0.223,6.069-0.331,14.567c-0.222,4.191-0.719,6.232-1.489,6.124
		c-0.662-0.554-0.939-2.539-0.828-5.959c0-2.207,0-4.082,0-5.629c0-2.206,0-4.469,0-6.786s-0.166-3.642-0.496-3.973
		c-0.223,0-0.554,0-0.994,0c-0.992,0.109-1.986,0-2.979-0.331c-0.223,6.731-2.043,11.645-5.463,14.732
		c-1.216,0.992-1.934,1.381-2.152,1.158c-0.111-0.33,0.332-0.992,1.324-1.985c2.537-2.98,4.027-7.45,4.47-13.409
		c0-3.641-0.277-5.849-0.827-6.621l-0.166-0.166c-1.105-1.101-0.389-1.379,2.152-0.826c2.979-1.765,4.8-3.312,5.463-4.636
		c0-0.108,0-0.221,0-0.331c0-0.662,0.549-0.718,1.654-0.166C400.266,103.046,401.04,103.93,400.047,104.261z"/>
	<path fill="#595959" d="M419.911,117.504c0.109-0.109,0.332-0.222,0.662-0.332c2.096-1.324,3.198-1.82,3.311-1.49
		c0.219,0.223-0.553,0.994-2.316,2.318c-0.663,0.554-1.16,0.938-1.49,1.158c0,0.331,0,1.051,0,2.152
		c0.108,3.09,0.166,5.793,0.166,8.111c-0.444,3.31-1.382,5.073-2.814,5.297c-0.223,0-0.554-0.443-0.994-1.324
		c-0.661-1.325-1.381-2.373-2.151-3.146c-0.774-0.771-0.331-0.827,1.324-0.166c0.881,0.332,1.378,0.497,1.49,0.497
		c0.438-0.221,0.771-1.102,0.993-2.648c0.108-1.324,0.165-3.916,0.165-7.78c-2.317,1.766-4.36,3.422-6.124,4.966
		c-0.663,0.555-1.105,0.885-1.324,0.993c-1.656-0.221-2.648-0.993-2.98-2.317c0-0.107,0.332-0.273,0.993-0.496
		c2.757-1.103,5.96-2.704,9.602-4.801v-5.959c-2.54,0.441-4.582,0.606-6.125,0.496c-1.987-0.33-2.209-0.718-0.662-1.158
		c0.331-0.108,1.212-0.331,2.648-0.662c2.095-0.439,3.476-0.771,4.139-0.993c-0.112-4.635-0.72-7.946-1.821-9.933
		c-0.223-0.438-0.277-0.77-0.166-0.992c1.765-0.439,3.312,0.166,4.636,1.82c0,0.223-0.058,0.662-0.166,1.324
		c-0.443,1.878-0.719,4.305-0.827,7.283c0.219,0,0.771-0.108,1.655-0.33c0.439-0.109,0.715-0.166,0.827-0.166
		c0.881,0,1.49,0.223,1.821,0.662c0.219,0.441,0.054,0.828-0.497,1.158c-0.885,0.332-2.209,0.662-3.973,0.994V117.504z
		 M433.154,115.848c1.102-0.221,1.985-0.552,2.648-0.993c0.218-0.222,0.439-0.331,0.662-0.331c1.324,0.331,2.37,0.993,3.146,1.986
		c0,0.11-0.166,0.331-0.497,0.662c-0.885,0.772-1.437,1.547-1.655,2.317c-0.662,2.209-1.603,4.249-2.814,6.124
		c0.881,0.994,2.814,2.153,5.794,3.478c1.655,0.661,3.642,1.269,5.96,1.819c0.549,0.111,0.936,0.166,1.158,0.166
		c0.881,0.11,1.377,0.276,1.49,0.496l-0.994,0.166c-6.071,1.213-9.326,1.213-9.766,0c-1.106-0.662-2.541-1.876-4.305-3.641
		c-0.331-0.331-0.609-0.606-0.827-0.828c-1.769,1.436-3.808,2.482-6.125,3.146c-3.973,0.771-5.297,0.719-3.973-0.166
		c3.419-1.102,6.29-2.704,8.607-4.801c-1.216-1.433-2.595-2.869-4.138-4.304c-0.332-0.331-0.775-0.605-1.324-0.828
		c-0.443-0.22-0.609-0.439-0.497-0.662c0.219-0.33,0.88-0.273,1.986,0.166c0.771,0.223,1.929,1.104,3.476,2.649
		c0.663,0.771,1.213,1.323,1.656,1.654c1.433-2.648,2.152-4.966,2.152-6.952c-0.444-0.221-2.044,0.057-4.801,0.828
		c-1.547,0.441-2.54,0.662-2.98,0.662c-0.662,0-1.324-0.166-1.986-0.497c-0.443-0.221-0.33-0.386,0.332-0.496
		c0.77-0.221,1.93-0.497,3.476-0.828c0.993-0.221,1.765-0.386,2.317-0.497c0.109-0.882,0.274-2.704,0.497-5.462
		c-1.769,0.331-3.368,0.331-4.801,0c-1.547-0.439-1.603-0.827-0.165-1.159c1.654-0.221,3.311-0.496,4.966-0.827
		c0.438-4.304,0.165-7.449-0.828-9.435c-0.222-0.332-0.278-0.553-0.165-0.662c1.211-0.553,2.757-0.057,4.635,1.488
		c0,0.331-0.057,0.886-0.166,1.655c-0.443,1.766-0.827,3.865-1.158,6.29c0.662-0.221,1.543-0.552,2.648-0.993
		c0.993-0.33,1.708-0.552,2.152-0.661c1.102,0,1.93,0.223,2.482,0.661c0.331,0.441,0,0.886-0.993,1.324
		c-1.324,0.555-3.589,1.217-6.787,1.987L433.154,115.848z"/>
	<path fill="#595959" d="M470.233,113.033c2.867,3.202,5.902,5.959,9.104,8.277c1.874,1.216,5.073,2.54,9.601,3.973
		c1.102,0.33,1.709,0.662,1.82,0.992c0.109,0.223-0.277,0.389-1.158,0.497c-3.423,0.441-5.851,0.554-7.283,0.331
		c-1.216-0.108-2.209-0.662-2.979-1.655c-1.655-1.763-4.416-4.966-8.276-9.601c-0.331-0.439-0.609-0.771-0.828-0.993
		c0,4.083,0.166,8.442,0.497,13.077c0.218,3.311-0.223,5.682-1.325,7.118c-0.662,0.438-1.324-0.886-1.986-3.974
		c0-0.221,0.054-0.604,0.166-1.158c0.439-0.993,0.771-6.232,0.993-15.726c-4.085,6.513-8.83,11.034-14.235,13.574
		c-1.768,0.554-2.152,0.44-1.159-0.332c6.067-4.411,10.76-9.378,14.07-14.897c-3.311,0.661-5.409,0.992-6.29,0.992
		c-1.105,0-2.152-0.273-3.146-0.826c-0.554-0.332-0.278-0.553,0.828-0.662c3.973-0.552,7.283-1.103,9.932-1.656
		c0-1.433,0-2.426,0-2.979c0-0.771-0.058-1.49-0.165-2.151c-0.113-2.539-0.497-4.636-1.159-6.29
		c-0.223-0.44-0.278-0.718-0.165-0.828c1.654-0.109,3.253,0.554,4.801,1.986c0,0.223-0.058,0.554-0.166,0.993
		c-0.775,2.208-1.216,5.188-1.324,8.939c1.764-0.332,3.529-0.719,5.297-1.159c0.992-0.222,1.598-0.332,1.82-0.332
		c1.324-0.107,2.371,0.166,3.146,0.829c0.439,0.553,0,0.992-1.324,1.324c-0.774,0.222-2.927,0.553-6.456,0.992
		c-1.324,0.11-2.209,0.223-2.648,0.332V113.033z M482.648,104.923c-0.223,0.885-0.827,1.103-1.821,0.662
		c-1.324-0.771-2.76-1.93-4.303-3.477c-0.662-0.552-0.444-0.828,0.662-0.828c1.873,0.11,3.252,0.389,4.138,0.828
		C482.205,102.881,482.648,103.821,482.648,104.923z"/>
</g>
</svg>
