<svg id="Layer_1" xmlns="http://www.w3.org/2000/svg" viewBox="0 0 117.7 39.3"><style>.st0{fill:#fff}.st1{opacity:.2}.st1,.st2,.st3{fill:#4bbfaf;enable-background:new}.st2{opacity:.1}.st3{opacity:.3}.st4{fill-opacity:0}.st4,.st5{fill:#4bbfaf}.st6{fill:#338c7d}</style><path class="st0" d="M50.1-70.7c0 1.4-.4 2.4-1.1 3.1-.7.7-1.8 1.1-3.2 1.1h-2.3v-8.2H46c1.3 0 2.3.4 3 1.1.7.7 1.1 1.7 1.1 2.9zm-1 .1c0-1.1-.3-1.9-.8-2.4s-1.3-.8-2.4-.8h-1.4v6.5h1.2c1.1 0 2-.3 2.6-.8.5-.6.8-1.4.8-2.5zm7 4.1v-8.2h1v8.2h-1zm11.1-4.3H70v4c-.4.1-.9.2-1.3.3s-1 .1-1.6.1c-1.2 0-2.2-.4-2.9-1.1-.7-.7-1-1.8-1-3.1 0-.9.2-1.6.5-2.2.3-.6.8-1.1 1.5-1.5.6-.3 1.4-.5 2.3-.5s1.7.2 2.4.5l-.4.8c-.7-.3-1.5-.5-2.1-.5-1 0-1.8.3-2.3.9-.6.6-.8 1.4-.8 2.5s.3 1.9.8 2.5c.5.6 1.3.9 2.4.9.6 0 1.1-.1 1.7-.2v-2.5h-1.8v-.9h-.2zm13.7 4.3h-4.6v-8.2h4.6v.8h-3.6v2.6h3.4v.8h-3.4v3h3.6v1zm10.8-2.2c0 .7-.3 1.3-.8 1.7s-1.2.6-2.1.6c-1 0-1.7-.1-2.2-.4v-.9c.3.1.7.3 1.1.3s.8.1 1.2.1c.6 0 1.1-.1 1.4-.4.3-.2.5-.6.5-1 0-.3-.1-.5-.2-.7-.1-.2-.3-.3-.6-.5s-.7-.3-1.2-.5c-.8-.3-1.3-.6-1.6-1s-.5-.9-.5-1.5.2-1.1.7-1.5 1.1-.6 1.9-.6 1.6.1 2.2.4l-.3.8c-.7-.3-1.3-.4-2-.4-.5 0-.9.1-1.2.3-.3.2-.4.5-.4.9 0 .3.1.5.2.7.1.2.3.3.5.5s.6.3 1.1.5c.9.3 1.5.6 1.8 1 .3.4.5 1.1.5 1.6zm8.6 2.2h-1v-7.3h-2.6v-.9h6.1v.8h-2.6l.1 7.4zm-67-18.1c-1.6-4.5-5.1-8-9.5-9.7-1.8-.7-3.7-1-5.7-1-2.2 0-4.3.4-6.2 1.2-3.9 1.6-7.1 4.7-8.7 8.6-.9 2-1.3 4.1-1.3 6.4 0 1.9.3 3.7.9 5.4 1.2 3.4 3.6 6.4 6.6 8.3l4.7-8.4c-1.1-.8-1.9-1.9-2.3-3.1-.2-.7-.4-1.4-.4-2.2 0-.9.2-1.8.5-2.6.7-1.6 2-2.8 3.6-3.5.8-.3 1.6-.5 2.5-.5.8 0 1.6.1 2.3.4 1.8.7 3.3 2.1 3.9 3.9.3.7.4 1.5.4 2.3 0 .9-.2 1.8-.5 2.6-.5 1.1-1.2 2-2.2 2.7l4.8 8.3c2.7-1.7 4.9-4.3 6.2-7.3.9-2 1.3-4.1 1.3-6.4.1-1.8-.3-3.6-.9-5.4z"/><path class="st1" d="M9.4-65.3l4.7-8.4c-1.1-.8-1.9-1.9-2.3-3.1l-9 3.2c1.2 3.4 3.5 6.3 6.6 8.3z"/><path class="st2" d="M21.9-73.7l4.8 8.3c2.7-1.7 4.9-4.3 6.2-7.3l-8.8-3.8c-.5 1.2-1.2 2.1-2.2 2.8z"/><path class="st3" d="M24.3-81.3l9-3.2c-1.6-4.5-5.1-8-9.5-9.7l-3.4 9c1.8.6 3.2 2.1 3.9 3.9z"/><path class="st2" d="M15.5-85.2l-3.6-8.9c-3.9 1.6-7.1 4.7-8.7 8.6l8.8 3.8c.6-1.6 1.9-2.8 3.5-3.5z"/><path class="st1" d="M18-85.7c.8 0 1.6.1 2.3.4l3.4-9c-1.8-.7-3.7-1-5.7-1-2.2 0-4.3.4-6.2 1.2l3.6 8.9c.9-.3 1.7-.5 2.6-.5z"/><path class="st4" d="M11.9-81.7l-8.8-3.8c-.9 2-1.3 4.1-1.3 6.4 0 1.9.3 3.7.9 5.4l9-3.2c-.2-.7-.4-1.4-.4-2.2.1-.9.3-1.8.6-2.6z"/><path class="st1" d="M33.3-84.6l-9 3.2c.3.7.4 1.5.4 2.3 0 .9-.2 1.8-.5 2.6l8.8 3.8c.9-2 1.3-4.1 1.3-6.4 0-1.9-.4-3.7-1-5.5z"/><path class="st5" d="M35.2-83c-1-4.5-3.8-8.4-7.7-10.9-4-2.5-8.9-3.4-13.5-2.3-4.5 1-8.4 3.9-10.9 7.7-2.5 4-3.4 8.9-2.3 13.4 1 4.4 3.8 8.3 7.6 10.8.5.3.9.6 1.4.8.8-1.4 1.6-2.8 2.3-4.2.8-1.4 1.6-2.8 2.4-4.3.4-.8.9-1.6 1.3-2.4-1.8-.8-3.1-2.6-3.2-4.6-.1-1.8.8-3.6 2.3-4.6 1.6-1.1 3.8-1.2 5.5-.2 1.6.9 2.7 2.7 2.7 4.6 0 2.1-1.3 4.1-3.2 4.9.8 1.4 1.6 2.8 2.5 4.3l2.4 4.2c.4.7.9 1.5 1.3 2.2 2.6-1.4 4.9-3.5 6.5-5.9 1.6-2.4 2.5-5.1 2.8-7.9.4-1.8.2-3.8-.2-5.6zm-12.9 9c1.5-1.2 2.4-3.1 2.4-5s-.8-3.7-2.2-5c-1.4-1.2-3.2-1.9-5-1.7-1.6.1-3.2.9-4.3 2.1-1.2 1.4-1.9 3.2-1.7 5 .1 1 .4 2 .9 2.8.2.4.5.8.8 1.1l.5.5.3.3s.2.1.2.2-.2.3-.2.3c-.2.3-.3.6-.5.9-.5.9-1 1.8-1.5 2.6-.8 1.5-1.7 3-2.5 4.4v.1c-2.3-1.5-4.2-3.5-5.6-5.9-1.4-2.5-2.1-5.2-2-8 0-2.7.8-5.5 2.2-7.8 1.1-2.3 3-4.2 5.2-5.6 2.3-1.5 4.9-2.3 7.7-2.5 2.7-.3 5.5.3 8 1.5s4.6 3 6.2 5.3c1.6 2.3 2.6 4.9 2.9 7.7.3 2.6-.1 5.2-1 7.6-1 2.6-2.7 4.8-4.8 6.6-.5.4-1 .8-1.6 1.2-.6-1-1.1-1.9-1.7-2.9-.9-1.5-1.7-3-2.6-4.5-.1-.2-.3-.5-.4-.7 0 0-.1-.1-.1-.2 0-.2.3-.3.4-.4z"/><path class="st0" d="M43.4-91.5c.8-.9 2.1-1.4 4.1-1.4s3.4.5 4.1 1.4c.8.9 1.2 2.6 1.2 5s-.4 4.1-1.2 5-2.2 1.4-4.1 1.4c-2 0-3.4-.5-4.1-1.4-.8-.9-1.2-2.6-1.2-5s.4-4.1 1.2-5zm6 1.7c-.3-.6-1-.9-1.9-.9s-1.6.3-1.9.9c-.3.6-.5 1.7-.5 3.3s.2 2.7.5 3.3c.3.6 1 .9 1.9.9s1.6-.3 1.9-.9c.3-.6.5-1.7.5-3.3s-.1-2.7-.5-3.3zm5.4 9.5v-10.5c.9-.1 2.3-.1 4-.1 1.5 0 2.5.2 3 .7s.8 1.4.8 2.7c0 1.3-.3 2.2-.8 2.7s-1.4.7-2.8.7c-.7 0-1.3 0-2-.1v3.9h-2.2zm2.3-5.5h1.6c.6 0 1-.1 1.2-.4.2-.2.3-.7.3-1.3 0-.7-.1-1.1-.3-1.3-.2-.2-.6-.3-1.2-.3h-1.6v3.3zm14.2 3.7l.1 1.7c-1 .1-2.6.2-4.9.2-.7 0-1.3-.2-1.7-.6-.4-.4-.6-.9-.6-1.6v-6.3c0-.7.2-1.2.6-1.6.4-.4 1-.6 1.7-.6 2.3 0 3.9.1 4.9.2l-.1 1.7h-4.1c-.3 0-.4.1-.6.2-.1.1-.2.3-.2.6v1.6h4.2v1.7h-4.2v2c0 .3.1.5.2.6.1.1.3.2.6.2h4.1zm10.8-8.7v9.7c0 .6-.3.8-.8.8h-1.5c-.2 0-.4-.1-.6-.2-.1-.1-.3-.3-.4-.5L76-86.6c-.3-.7-.6-1.3-.6-1.6h-.2c.1.5.1 1.1.1 1.7v6.3h-2.2V-90c0-.6.3-.8.8-.8h1.4c.2 0 .4.1.6.2.1.1.3.3.4.5l2.7 5.4c.3.5.5 1.1.8 1.7h.2c-.1-.8-.1-1.4-.1-1.8v-6h2.2zm14.8 8.2l.2 2c-1.1.3-2.4.5-4 .5-1.9 0-3.2-.5-4-1.4-.8-1-1.2-2.6-1.2-5 0-2.3.4-4 1.2-5 .8-1 2.1-1.4 4-1.4 1.4 0 2.6.1 3.7.4l-.2 2c-1-.1-2.1-.1-3.5-.1-.9 0-1.5.3-1.8.8-.3.6-.5 1.6-.5 3.2 0 1.5.2 2.6.5 3.2s.9.8 1.8.8c1.8.2 3 .1 3.8 0zm4.6-8.2v7.9c0 .3.1.5.2.6.1.1.3.2.6.2h3.6l.1 1.8c-1 .1-2.5.2-4.5.2-.8 0-1.4-.2-1.8-.6-.4-.4-.6-1-.6-1.6v-8.5h2.4zm6.4.9c.7-.8 1.8-1.2 3.5-1.2s2.9.4 3.5 1.2c.7.8 1 2.2 1 4.3s-.3 3.5-1 4.3c-.7.8-1.8 1.2-3.5 1.2s-2.9-.4-3.5-1.2c-.7-.8-1-2.2-1-4.3 0-2 .3-3.5 1-4.3zm5.1 1.5c-.3-.5-.8-.8-1.6-.8s-1.3.3-1.6.8c-.3.5-.4 1.4-.4 2.8s.1 2.3.4 2.8.8.8 1.6.8 1.3-.3 1.6-.8c.3-.5.4-1.4.4-2.8.1-1.3-.1-2.3-.4-2.8zm13.2-2.4v6.4c0 1.6-.3 2.8-.9 3.4-.6.7-1.7 1-3.2 1-1.6 0-2.7-.3-3.4-1-.6-.7-1-1.8-1-3.4v-6.4h2.3v6.4c0 1 .1 1.6.4 2s.8.5 1.5.5 1.2-.2 1.5-.5c.3-.4.4-1 .4-2v-6.4h2.4zm2.1 10.5v-10.5c1.4-.1 2.8-.1 4.1-.1 1.7 0 2.9.4 3.5 1.2.7.8 1 2.2 1 4.3s-.3 3.5-1 4.3c-.7.8-1.8 1.2-3.5 1.2-1.3-.2-2.7-.3-4.1-.4zm2.3-8.8v7.1h1.7c.8 0 1.3-.2 1.6-.8.3-.5.4-1.4.4-2.8s-.1-2.3-.4-2.8c-.3-.5-.8-.8-1.6-.8l-1.7.1z"/><path class="st6" d="M1.3 20.7h115v17.9H1.3z"/><path class="st0" d="M7.2.7c2.4 0 4 .6 5 1.7.9 1.1 1.4 3.2 1.4 6.3s-.5 5.1-1.4 6.3c-.9 1.1-2.6 1.7-5 1.7s-4-.6-4.9-1.7C1.4 13.9.9 11.8.9 8.7s.5-5.1 1.4-6.3C3.2 1.3 4.8.7 7.2.7zm0 2.4c-1.3 0-2.2.4-2.7 1.2-.5.8-.7 2.2-.7 4.4 0 2.1.2 3.6.7 4.4.5.8 1.4 1.2 2.7 1.2 1.3 0 2.2-.4 2.7-1.2.5-.8.7-2.3.7-4.4 0-2.1-.2-3.6-.7-4.4-.5-.8-1.4-1.2-2.7-1.2zm9.1 13.3V3.2C17.4 3.1 19 3 21 3c1.7 0 2.9.3 3.6.9.6.6 1 1.7 1 3.3s-.3 2.8-.9 3.3c-.6.6-1.7.9-3.3.9-.9 0-1.8-.1-2.7-.2v5h-2.4zm2.4-6.8H21c.8 0 1.4-.2 1.7-.5.3-.3.5-.9.5-1.8s-.2-1.5-.5-1.8c-.3-.3-.9-.5-1.7-.5h-2.3v4.6zm17.5 4.8l.1 1.8c-1.2.1-3.1.2-5.8.2-.9 0-1.5-.2-2-.7-.5-.4-.8-1.1-.8-1.8V5.7c0-.8.3-1.4.8-1.8.5-.4 1.2-.7 2-.7 2.7 0 4.6.1 5.8.2l-.1 1.8h-5.1c-.3 0-.6.1-.7.2-.1.2-.2.5-.2.9v2.3h5.4v1.8h-5.4v2.9c0 .4.1.7.2.9.1.2.4.2.7.2h5.1zM49.4 3.2v12.3c0 .6-.3.9-.9.9h-1.9c-.5 0-.8-.2-1-.7L42 7.6c-.4-1-.7-1.6-.8-2H41c.1.5.1 1.2.1 2v8.8h-2.3V4.1c0-.6.3-.9.9-.9h1.8c.3 0 .5.1.6.2.1.1.3.3.4.6l3.6 7.8c0 .1.2.4.4.9s.4.9.5 1.2h.2c-.1-.8-.1-1.5-.1-2.1V3.2h2.3zM67.9 14l.2 2.1c-1.2.4-2.8.6-4.7.6-2.3 0-3.9-.6-4.9-1.8-.9-1.2-1.4-3.2-1.4-6.2 0-2.9.5-5 1.4-6.2.9-1.2 2.6-1.8 4.9-1.8 1.7 0 3.2.2 4.4.5l-.3 2.1c-1.3-.1-2.7-.2-4.1-.2-1.3 0-2.1.4-2.6 1.2-.5.8-.7 2.2-.7 4.3 0 2.1.2 3.5.7 4.3.5.8 1.3 1.2 2.6 1.2 1.9.1 3.4 0 4.5-.1zm5.3-10.8v10.1c0 .4.1.7.2.8.2.2.5.2.9.2h4.6l.1 1.8c-1.2.1-3 .2-5.2.2-2 0-3-.9-3-2.7V3.2h2.4zM85.6 3c2 0 3.4.5 4.2 1.5.8 1 1.2 2.8 1.2 5.4 0 2.6-.4 4.4-1.2 5.4-.8 1-2.2 1.5-4.2 1.5s-3.4-.5-4.2-1.5c-.8-1-1.2-2.8-1.2-5.4 0-2.6.4-4.4 1.2-5.4.8-1 2.2-1.5 4.2-1.5zm0 2c-1.1 0-1.9.3-2.3 1-.3.7-.6 2-.6 3.8 0 1.8.2 3.1.6 3.8.4.7 1.2 1 2.3 1 1.1 0 1.9-.3 2.3-1 .4-.7.6-1.9.6-3.8 0-1.8-.2-3.1-.6-3.8-.4-.7-1.1-1-2.3-1zm18-1.8v8c0 2-.4 3.4-1.1 4.2-.7.8-2 1.2-3.8 1.2-1.9 0-3.2-.4-4-1.2-.8-.8-1.2-2.2-1.2-4.2v-8h2.4v8c0 1.3.2 2.1.6 2.6.4.5 1.1.7 2.1.7s1.7-.2 2-.7c.4-.5.6-1.4.6-2.6v-8h2.4zm2.9 13.2V3.2c1.7-.1 3.4-.2 4.9-.2 2 0 3.4.5 4.2 1.5.8 1 1.2 2.7 1.2 5.3 0 2.5-.4 4.3-1.2 5.3-.8 1-2.2 1.5-4.2 1.5-1.5-.1-3.1-.1-4.9-.2zM108.9 5v9.4h2.5c1.1 0 1.8-.3 2.2-1 .4-.7.6-1.9.6-3.7 0-1.8-.2-3-.6-3.7-.4-.7-1.2-1-2.2-1h-2.5zM30.1 29.9c0 1.7-.5 3-1.4 3.9-.9.9-2.2 1.3-3.9 1.3H22V24.9h3.1c1.6 0 2.8.4 3.7 1.3.8.9 1.3 2.1 1.3 3.7zm-1.3 0c0-1.3-.3-2.3-1-3-.7-.7-1.7-1-3-1h-1.7V34h1.4c1.4 0 2.5-.3 3.2-1 .8-.7 1.1-1.7 1.1-3.1zm8.7 5.2V24.9h1.2v10.2h-1.2zm13.9-5.4h3.5v5c-.5.2-1.1.3-1.6.4-.6.1-1.2.1-1.9.1-1.5 0-2.7-.5-3.6-1.4-.9-.9-1.3-2.2-1.3-3.9 0-1.1.2-2 .6-2.8.4-.8 1-1.4 1.8-1.8.8-.4 1.7-.6 2.8-.6 1.1 0 2.1.2 3 .6l-.5 1c-.9-.4-1.8-.6-2.7-.6-1.2 0-2.2.4-2.9 1.1-.7.7-1 1.8-1 3.1 0 1.4.3 2.4 1 3.1.7.7 1.7 1.1 3 1.1.7 0 1.4-.1 2.1-.2v-3.1h-2.3v-1.1zm17 5.4h-5.7V24.9h5.7V26h-4.5v3.3h4.2v1h-4.2V34h4.5v1.1zm13.5-2.7c0 .9-.3 1.6-1 2.1s-1.5.8-2.7.8c-1.2 0-2.1-.2-2.8-.5v-1.1c.4.2.9.3 1.4.4.5.1 1 .2 1.5.2.8 0 1.4-.1 1.8-.4.4-.3.6-.7.6-1.3 0-.4-.1-.6-.2-.9-.1-.2-.4-.4-.7-.6-.3-.2-.8-.4-1.5-.6-.9-.3-1.6-.7-2-1.2-.4-.5-.6-1.1-.6-1.8 0-.8.3-1.4.9-1.9.6-.5 1.4-.7 2.3-.7 1 0 1.9.2 2.8.6l-.4 1c-.8-.4-1.7-.5-2.5-.5-.6 0-1.1.1-1.5.4-.4.3-.5.6-.5 1.1 0 .4.1.6.2.9.1.2.3.4.7.6.3.2.8.4 1.4.6 1.1.4 1.8.8 2.2 1.2.4.3.6.9.6 1.6zm10.6 2.7h-1.2V26h-3.2v-1.1h7.6V26h-3.2v9.1z"/></svg>